# xmcd
#
# Track frame offsets: 
#        150
#        12887
#        25281
#        35108
#        45279
#        56391
#        67032
#        82398
#        95103
#        108177
#        117787
#        127703
#        138349
#        151450
#        164852
#        179355
#        192760
#        204856
#        223595
#        236601
#        248848
#        262404
#        275272
#        285493
#        295301
#        307112
#        317693
#
# Disc length: 4397 seconds
#
# Revision: 2
# Processed by: cddbd v1.5.2PL0 Copyright (c) Steve Scherf et al.
# Submitted via: ExactAudioCopy v1.0b3
#
DISCID=92112b1b
DTITLE=Howlin' Wolf - The Complete RPM and Chess Singles As and Bs 1951-62
DTITLE=CD3
DYEAR=2014
DGENRE=Blues
TTITLE0=Back Door Man
TTITLE1=Little Baby
TTITLE2=Down In The Bottom
TTITLE3=Shake For Me
TTITLE4=The Red Rooster
TTITLE5=You'll Be Mine
TTITLE6=Goin' Down Slow
TTITLE7=Just Like I Treat You
TTITLE8=I Ain't Superstitious
TTITLE9=Mama's Baby
TTITLE10=Do The Do
TTITLE11=Keep What You Got
TTITLE12=California Blues
TTITLE13=California Boogie
TTITLE14=My Troubles And Me
TTITLE15=Worried About My Baby
TTITLE16=Brown Skin Woman
TTITLE17=House Rockin' Boogie
TTITLE18=Driving This Highway
TTITLE19=The Sun Is Rising
TTITLE20=Stealing My Clothes
TTITLE21=I'm The Wolf
TTITLE22=Highway My Friend
TTITLE23=Hold Your Money
TTITLE24=Stay Here Till My Baby Comes Back
TTITLE25=Crazy About You Baby
TTITLE26=Streamline Woman
EXTD=
EXTT0=
EXTT1=
EXTT2=
EXTT3=
EXTT4=
EXTT5=
EXTT6=
EXTT7=
EXTT8=
EXTT9=
EXTT10=
EXTT11=
EXTT12=
EXTT13=
EXTT14=
EXTT15=
EXTT16=
EXTT17=
EXTT18=
EXTT19=
EXTT20=
EXTT21=
EXTT22=
EXTT23=
EXTT24=
EXTT25=
EXTT26=
PLAYORDER=
